<svg width="373" height="288" viewBox="0 0 373 288" fill="none" xmlns="http://www.w3.org/2000/svg">
<g clip-path="url(#clip0_1_2)">
<path d="M323.396 34.3055C322.39 33.2274 320.965 32.5482 319.323 32.4909L284.496 31.2747C281.216 31.1601 278.604 33.5956 278.49 36.8753L278.382 39.9017L307.417 40.6639C309.724 40.7496 311.903 41.7457 313.478 43.4342C315.052 45.1227 315.894 47.3662 315.819 49.6738L314.803 78.6974L317.83 78.8013C320.981 79.0391 323.595 76.6055 323.83 73.4559L324.925 38.4987C324.96 37.7333 324.843 36.9687 324.58 36.2489C324.318 35.5292 323.915 34.8686 323.396 34.3055ZM311.382 45.5086C310.377 44.4304 308.951 43.7512 307.311 43.6922L272.482 42.4777C269.202 42.3632 266.591 44.7986 266.478 48.0766L266.071 59.685C265.958 62.9666 268.392 65.5764 271.673 65.6928L289.083 66.3026L288.479 83.7144C288.364 86.9942 290.8 89.6059 294.079 89.7204L305.686 90.1257C308.837 90.3635 311.581 87.8085 311.817 84.6589L312.913 49.7C312.948 48.9348 312.83 48.1704 312.567 47.451C312.304 46.7315 311.902 46.0713 311.382 45.5086Z" fill="url(#paint0_linear_1_2)"/>
</g>
<path d="M128.879 128.141V179H115.889V66.2727H128.879V107.665H129.98C131.962 103.298 134.934 99.8304 138.897 97.2617C142.897 94.6564 148.218 93.3537 154.859 93.3537C160.621 93.3537 165.666 94.5096 169.996 96.8214C174.326 99.0965 177.684 102.601 180.069 107.335C182.491 112.031 183.702 118.013 183.702 125.278V179H170.712V126.159C170.712 119.444 168.969 114.252 165.483 110.582C162.033 106.876 157.245 105.023 151.116 105.023C146.86 105.023 143.044 105.922 139.668 107.72C136.328 109.518 133.686 112.142 131.741 115.591C129.833 119.04 128.879 123.223 128.879 128.141Z" fill="#911A1A"/>
<path d="M209.228 179V66.2727H222.218V107.885H223.319C224.273 106.417 225.594 104.546 227.282 102.271C229.006 99.9588 231.465 97.9039 234.657 96.1058C237.887 94.2711 242.253 93.3537 247.758 93.3537C254.876 93.3537 261.151 95.1334 266.582 98.6928C272.013 102.252 276.251 107.298 279.297 113.83C282.343 120.361 283.866 128.067 283.866 136.947C283.866 145.901 282.343 153.662 279.297 160.23C276.251 166.762 272.031 171.826 266.637 175.422C261.243 178.982 255.023 180.761 247.978 180.761C242.547 180.761 238.198 179.862 234.933 178.064C231.667 176.23 229.153 174.156 227.392 171.844C225.63 169.496 224.273 167.551 223.319 166.01H221.777V179H209.228ZM221.998 136.727C221.998 143.112 222.933 148.745 224.805 153.625C226.676 158.469 229.41 162.267 233.006 165.019C236.602 167.735 241.006 169.092 246.216 169.092C251.647 169.092 256.179 167.661 259.812 164.799C263.481 161.9 266.234 158.01 268.068 153.13C269.94 148.213 270.875 142.745 270.875 136.727C270.875 130.783 269.958 125.425 268.123 120.655C266.325 115.848 263.591 112.05 259.922 109.261C256.289 106.435 251.721 105.023 246.216 105.023C240.932 105.023 236.492 106.362 232.896 109.041C229.3 111.683 226.584 115.389 224.75 120.159C222.915 124.893 221.998 130.416 221.998 136.727Z" fill="#BDD910"/>
<defs>
<linearGradient id="paint0_linear_1_2" x1="280.307" y1="32.8011" x2="321.909" y2="77.4135" gradientUnits="userSpaceOnUse">
<stop stop-color="#8B1C1C"/>
<stop offset="0.345" stop-color="#9C5D18"/>
<stop offset="1" stop-color="#BDD910"/>
</linearGradient>
<clipPath id="clip0_1_2">
<rect x="302.613" y="12" width="75" height="75" rx="2" transform="rotate(47 302.613 12)" fill="white"/>
</clipPath>
</defs>
</svg>
